<?xml version="1.0" ?><!DOCTYPE svg  PUBLIC '-//W3C//DTD SVG 1.1//EN'  'http://www.w3.org/Graphics/SVG/1.1/DTD/svg11.dtd'><svg height="512px" style="enable-background:new 0 0 512 512;" version="1.1" viewBox="0 0 512 512" width="512px" xml:space="preserve" xmlns="http://www.w3.org/2000/svg" xmlns:xlink="http://www.w3.org/1999/xlink"><g id="_x38_0"><g><g><path d="M338.633,294.801c-1.116,0-2.207-0.522-2.898-1.505c-1.116-1.601-0.722-3.802,0.879-4.924     c0.213-0.146,21.626-15.07,44.137-29.506c46.678-29.922,52.408-28.636,55.155-28.024c1.449,0.322,2.626,1.155,3.317,2.353     c0.982,1.692,0.4,3.851-1.292,4.824c-1.279,0.746-2.851,0.585-3.948-0.285c-8.332,0.346-53.512,28.636-93.324,56.436     C340.04,294.6,339.336,294.801,338.633,294.801z" style="fill:#CC3625;"/></g><g><path d="M325.23,409.083c-0.291,0-0.552-0.042-0.813-0.085c-0.994-0.206-1.965-0.891-2.469-1.771     c-1.164-2.014-0.945-2.528,3.481-9.036c-0.049-0.078-0.085-0.151-0.121-0.236l-2.577-5.646c-0.952-0.225-1.777-0.831-2.263-1.687     c-1.043-1.813-0.582-3.269,2.129-10.321c-0.146-0.17-0.272-0.346-0.382-0.534c-0.667-1.158-0.649-1.315,0.097-5.33     c-0.303,0.024-0.618,0-0.977-0.079c-0.988-0.2-1.874-0.837-2.383-1.716c-1.564-2.723-0.067-3.875,4.385-7.313     c1.122-0.867,2.856-2.208,4.821-3.754c-1.074-1.073-1.335-2.729-0.637-4.094c1.17-2.292,2.486-5.003,3.262-6.756     c-0.133-0.497-0.188-1.073-0.157-1.789c-2.038,1.073-2.39,0.982-3.312,0.746c-1.855-0.491-2.978-2.365-2.541-4.232l0.74-3.13     c-0.437-0.297-0.813-0.697-1.079-1.158c-0.589-1.019-0.631-2.256-0.122-3.311c0.625-1.286,1.28-2.656,1.887-3.997     c-0.073-0.018-0.14-0.03-0.207-0.048c-0.934-0.23-1.74-0.837-2.219-1.668c-1.347-2.322-0.219-4.609,4.015-11.559     c-0.091-0.115-0.17-0.23-0.243-0.364c-0.163-0.272-0.406-0.703-1.922-5.264c-1.426,0.661-3.129,0.31-4.173-0.909     c-1.104-1.292-1.128-3.19-0.061-4.513c1.511-1.867,3.069-3.808,4.566-5.676c-0.849-0.261-1.583-0.849-2.025-1.625     c-1.055-1.813-0.977-3.761,0.971-6.368c-0.315,0.188-0.497,0.291-0.516,0.31c-1.625,0.97-3.724,0.485-4.761-1.098     c-1.043-1.577-0.648-3.693,0.88-4.803c0.108-0.073,4.317-3.111,11.122-7.902c-0.262-0.31-0.468-0.606-0.631-0.886     c-2.02-3.517,1.109-5.912,11.316-12.989c0.709-0.491,1.455-1.007,2.249-1.547c-0.794-0.399-1.437-1-1.874-1.752     c-0.939-1.632-0.448-3.706,1.129-4.73l6.634-4.315c-0.382-0.03-0.679-0.103-0.958-0.167c-1.207-0.291-2.189-1.01-2.783-2.029     c-0.504-0.864-0.977-2.301-0.419-4.206c0.382-1.286,0.977-3.317,6.452-7.972c-0.891-0.5-1.619-1.219-2.141-2.125     c-1.771-3.056-0.327-5.23,9.679-11.798c-1.644,0.74-3.59,0.125-4.505-1.452c-0.94-1.623-0.449-3.703,1.127-4.728     c0.055-0.033,1.116-0.73,3.002-1.953c-0.108-0.127-0.218-0.261-0.309-0.406c-0.207-0.315-0.352-0.652-0.455-0.992     c-1.443,0.379-3.026-0.2-3.875-1.534c-1.037-1.644-0.552-3.814,1.085-4.86c2.044-1.307,4.185-2.675,6.398-4.094     c-0.922-0.367-1.68-1.013-2.177-1.868c-0.461-0.803-0.916-2.128-0.449-3.875c0.388-1.458,1.564-3.138,3.541-5.106     c-0.151-0.021-0.297-0.045-0.442-0.082c-1.098-0.27-1.995-0.934-2.541-1.88c-0.479-0.819-0.939-2.177-0.437-3.991     c0.382-1.425,1.031-3.787,8.727-10.203c-0.406-0.288-0.758-0.667-1.013-1.113c-0.346-0.606-0.685-1.477-0.685-2.593     c-2.741,1.971-4.318,3.129-4.379,3.172c-0.813,0.597-1.838,0.815-2.814,0.606c-0.982-0.206-1.831-0.822-2.328-1.686     c-0.455-0.776-0.886-2.053-0.419-3.745c0.395-1.404,0.989-3.554,8.654-9.636c-0.437-0.885-0.595-1.759-0.376-2.702     c-2.074,0.73-3.663,0.94-4.895,0.667c-1.304-0.288-2.383-1.064-3.025-2.18c-0.521-0.904-1.031-2.392-0.479-4.345     c0.073-0.228,0.146-0.461,0.249-0.697c-1.868,0.967-2.201,0.876-3.147,0.625c-0.91-0.243-1.674-0.833-2.147-1.646     c-0.206-0.354-0.357-0.734-0.454-1.131c-0.461,0.112-0.91,0.094-1.504-0.048c-0.946-0.225-1.765-0.828-2.244-1.671     c-1.334-2.308-1.559-4.445,7.096-11.201c-0.382-0.288-0.716-0.648-0.958-1.076c-0.504-0.864-0.989-2.301-0.455-4.221     c0.036-0.127,0.072-0.258,0.121-0.395c-1.116-0.379-2.031-1.112-2.607-2.11c-0.758-1.331-0.576-2.965,0.388-4.075     c-1.285,0.418-2.165,0.449-2.941,0.27c-1.073-0.251-1.971-0.904-2.504-1.837c-0.285-0.491-0.443-1.019-0.474-1.553     c-2.365,0.855-4.136,1.113-5.451,0.813c-1.305-0.3-2.365-1.073-3.009-2.177c-0.114-0.2-0.212-0.395-0.291-0.582     c-3.499,1.222-4.646,0.949-5.519,0.746c-1.219-0.291-2.213-1.013-2.813-2.043c-0.625-1.08-0.765-2.393-0.4-3.688     c0.358-1.264,0.916-3.229,7.665-8.547c-0.248-1.453,0.425-3.069,2.645-5.391l-6.223,3.596c-1.631,0.937-3.705,0.437-4.729-1.14     c-1.019-1.574-0.631-3.678,0.892-4.782l45.998-33.323c-0.801,0.488-1.607,0.994-2.432,1.5c-3.548,2.526-7.563,5.325-12.02,8.381     c-16.096,11.043-32.657,21.792-32.82,21.898c-1.607,1.043-3.76,0.615-4.84-0.964c-1.079-1.58-0.703-3.739,0.85-4.861     c0.091-0.069,5.748-4.157,13.917-9.815c-1.213,0.036-2.401-0.588-3.068-1.689c-1.001-1.634-0.521-3.769,1.086-4.809     c4.493-2.911,9.212-6.088,13.571-9.13c-0.157-0.185-0.314-0.385-0.437-0.606c-0.976-1.689-0.4-3.851,1.292-4.827l17.689-10.209     c1.68-0.974,3.845-0.4,4.821,1.292c0.346,0.597,0.576,1.173,0.631,1.786l14.767-8.526c0.813-0.467,1.771-0.591,2.681-0.352     c0.909,0.24,1.68,0.834,2.146,1.644c0.279,0.479,0.455,0.94,0.546,1.404c5.167-2.038,6.938-1.655,8.114-1.407     c1.504,0.324,2.723,1.18,3.438,2.423c0.903,1.564,0.485,3.565-0.988,4.627l-15.465,11.204l25.361-14.643     c0.819-0.47,1.777-0.598,2.687-0.354c0.897,0.242,1.681,0.833,2.142,1.646c0.879,1.519,0.545,2.792-0.164,3.799     c4.281-1.716,5.519-1.428,6.488-1.201c1.189,0.279,2.153,0.986,2.741,1.992c0.358,0.628,0.516,1.346,0.461,2.059     c0.94-0.622,1.886-1.243,2.82-1.862c0.807-0.543,1.807-0.716,2.753-0.498c0.837,0.2,1.57,0.691,2.068,1.389     c7.308-4.09,11.789-5.682,14.457-5.072c1.328,0.306,2.408,1.088,3.057,2.207c1.104,1.919,0.952,3.481-1.929,6.225     c0.795,0.44,1.456,1.07,1.91,1.859c0.595,1.019,0.619,2.22,0.164,3.226c0.661-0.051,1.262-0.012,1.789,0.106     c1.37,0.31,2.505,1.119,3.172,2.277c0.431,0.746,0.569,1.625,0.4,2.465c4.984-2.189,6.118-1.911,7.095-1.665     c1.08,0.261,1.971,0.918,2.499,1.85c0.357,0.604,0.509,1.164,0.533,1.683c2.607-0.625,3.754-0.361,4.621-0.161     c1.432,0.331,2.602,1.162,3.274,2.341c0.479,0.828,0.601,1.813,0.34,2.732c-0.212,0.767-0.686,1.438-1.328,1.898     c0.261,0.242,0.491,0.524,0.667,0.833c0.68,1.173,0.837,2.583,0.437,3.972c-0.212,0.758-0.63,1.559-1.249,2.411     c0.916,0.482,1.662,1.198,2.171,2.089c1.141,1.968,0.867,3.745-1.825,6.38c0.801-0.44,1.237-0.686,1.268-0.704     c1.692-0.94,3.827-0.336,4.785,1.352c0.952,1.689,0.37,3.83-1.311,4.8l-6.737,3.887c1.504,0.634,2.365,1.652,2.838,2.48     c0.115,0.191,0.207,0.394,0.279,0.603c4.481-1.904,5.561-1.637,6.495-1.407c1.073,0.264,1.959,0.919,2.492,1.844     c0.474,0.815,0.601,1.789,0.358,2.695c-0.255,0.913-0.855,1.686-1.681,2.147c-43.312,24.47-88.722,52.402-107.885,67.214     c11.401-6.653,28.515-17.581,43.27-27.008c47.308-30.212,57.738-36.113,62.032-35.067c1.109,0.27,2.014,0.946,2.571,1.901     c0.563,0.988,0.716,2.171,0.406,3.33c-0.449,1.662-2.116,3.624-5.694,6.386c1.34,0.421,2.426,1.271,3.093,2.432     c0.485,0.849,0.595,1.598,0.485,2.262c2.723-0.989,3.529-0.789,4.245-0.609c1.049,0.261,1.91,0.903,2.432,1.81     c0.952,1.656,0.425,3.769-1.207,4.772l-8.023,4.955c0.091,0.13,0.188,0.264,0.261,0.403c0.17,0.288,0.334,0.637,0.455,1.046     c0.079,0.019,0.146,0.034,0.219,0.052c1.194,0.285,2.188,1.004,2.771,2.022c1.249,2.159,1.14,4.309-3.142,8.323     c1.062,0.503,1.929,1.292,2.511,2.302c0.958,1.644,0.431,3.738-1.164,4.754l-12.317,7.787c0.455,0.352,0.843,0.788,1.134,1.292     c0.485,0.837,0.601,1.837,0.328,2.766c-0.121,0.394-0.304,0.767-0.546,1.094c0.333,0.243,0.624,0.546,0.861,0.913     c1.061,1.631,0.6,3.817-1.031,4.885c-0.061,0.042-1.698,1.113-4.542,2.953l-2.093,1.361c0.644-0.084,1.188-0.054,1.668,0.061     c1.092,0.258,1.995,0.925,2.541,1.865c1.704,2.969-0.934,4.679-3.051,6.046c-1.267,0.822-3.129,2.008-5.488,3.49     c-3.038,1.913-6.907,4.327-11.376,7.113c4.663-2.877,5.294-2.735,6.531-2.453c0.952,0.221,1.844,0.87,2.341,1.719     c1.837,3.189-1.11,5.53-5.403,8.617c0.272,0.315,0.484,0.628,0.654,0.916c2.232,3.863-1.206,6.74-15.082,15.333     c-9.023,5.594-21.559,12.86-34.827,20.549c-19.794,11.468-46.842,27.144-61.523,37.332c0.146,0.17,0.291,0.352,0.425,0.57     c0.03,0.048,0.061,0.091,0.091,0.146c1.237,2.141,0.315,3.317-2.407,6.805c-1.316,1.68-3.075,3.898-4.846,6.106     c-0.994,1.237-1.983,2.48-2.898,3.614c0.461,1.432,0.958,2.966,1.406,4.306c1.013-0.419,1.723-0.437,2.463-0.291     c0.988,0.2,1.922,0.873,2.432,1.74c1.176,2.038,0.503,3.123-2.687,8.326c-0.183,0.31-0.395,0.649-0.612,1.007     c0.637,0.31,1.182,0.801,1.534,1.426c0.77,1.34,1.285,2.219-2.493,10.497c0.061,0.085,0.115,0.17,0.17,0.261     c0.449,0.776,0.589,1.698,0.376,2.571l-0.115,0.503c0.728-0.321,1.553-0.388,2.335-0.182c0.903,0.236,1.68,0.831,2.153,1.644     c0.673,1.171,0.552,1.971,0.157,4.621c-0.085,0.595-0.219,1.516-0.327,2.353c0.036,0.067,0.072,0.121,0.108,0.183     c0.449,0.776,0.765,1.328,0.413,2.802l4.954-2.856c1.68-0.971,3.845-0.4,4.821,1.292c1.917,3.311,0.601,5.536-17.671,19.745     c-0.109,0.988-0.383,2.486-0.831,4.973c0.431,0.297,0.8,0.68,1.067,1.152c0.928,1.613,0.679,2.274-1.311,7.429     c-0.431,1.122-1.067,2.777-1.576,4.185c0.042,0.073,0.085,0.151,0.115,0.23l2.146,4.7c1.177-0.595,1.923-0.697,2.887-0.468     c0.934,0.225,1.759,0.844,2.244,1.674c1.115,1.929,0.879,2.456-2.584,7.544c0.079,0.085,0.146,0.17,0.213,0.262     c1.188,1.552,0.879,3.766-0.674,4.942C328.147,408.429,326.438,409.083,325.23,409.083z M359.222,245.476     c-0.431,0.343-0.843,0.673-1.237,0.992c0.764-0.358,1.57-0.749,2.432-1.176C359.967,245.394,359.573,245.458,359.222,245.476z      M421.727,207.237c-6.143,3.987-12.171,7.951-17.538,11.483c-11.358,7.478-19.788,12.969-26.119,16.959     c17.981-10.3,42.499-25.416,67.193-41.22C437.239,198.726,429.338,203.022,421.727,207.237z M447.301,209.978     c-2.22,1.389-4.591,2.862-7.084,4.417c-2.25,1.404-4.676,2.914-7.246,4.515c0.8-0.346,1.558-0.661,2.262-0.952     C440.866,214.159,444.662,211.64,447.301,209.978z M380.701,146.451c-3.123,1.904-5.967,3.708-8.387,5.361     C374.831,150.274,377.669,148.449,380.701,146.451z M409.956,73.745c-26.708,14.885-52.408,30.261-65.738,39.752     C358.663,105.932,383.945,90.504,409.956,73.745z" style="fill:#CC3625;"/></g><g><path d="M319.524,107.138c-0.194,0-0.383-0.015-0.595-0.051c-0.958-0.158-1.825-0.716-2.371-1.513     l-3.566-5.249l-4.111,2.374c-1.328,0.77-3.008,0.585-4.136-0.446c-1.14-1.034-1.479-2.687-0.837-4.084     c0.194-0.431,0.395-0.87,0.595-1.322c-9.134,5.637-10.231,5.367-11.48,5.073c-0.946-0.225-1.837-0.885-2.328-1.729     c-0.935-1.616-0.795-3.014,0.952-5.17c-0.406-0.288-0.752-0.667-1.007-1.106c-0.067-0.125-0.14-0.24-0.194-0.355     c-2.28,1.18-3.845,1.519-5.252,1.219c-1.176-0.255-2.146-0.955-2.729-1.974c-0.516-0.888-0.655-1.652-0.485-2.389     c-4.021,2.398-8.187,4.9-12.214,7.344c-0.813,0.488-1.795,0.634-2.711,0.394c-0.928-0.233-1.71-0.833-2.177-1.655     c-1.546-2.681,0.57-4.664,2.813-6.765c0.194-0.179,0.4-0.373,0.613-0.57c-3.869,1.859-4.821,1.634-5.598,1.453     c-1.04-0.243-1.901-0.874-2.426-1.783c-0.795-1.383-0.57-3.129,0.558-4.26l3.584-3.593c-1.644,1.104-3.269,2.223-4.833,3.314     c-1.595,1.119-3.802,0.73-4.921-0.87c-1.116-1.598-0.728-3.803,0.871-4.921c24.742-17.29,27.871-16.589,29.369-16.25     c1.11,0.246,2.025,0.91,2.578,1.868c0.8,1.386,0.569,3.129-0.553,4.26l-3.456,3.466c2.086-1.346,4.172-2.711,6.18-4.042     c0.807-0.542,1.813-0.722,2.759-0.5c0.952,0.224,1.771,0.828,2.25,1.674c1.08,1.861,0.782,3.675-1.686,6.716     c11.062-6.37,11.819-6.167,12.996-5.867c0.922,0.233,1.729,0.846,2.207,1.668c1.334,2.308,0.273,3.711-2.602,6.353     c0.376,0.285,0.709,0.646,0.946,1.061c0.31,0.537,0.509,1.003,0.569,1.477c1.565-0.925,3.16-1.865,4.706-2.784     c1.602-0.946,3.663-0.494,4.712,1.034c1.056,1.531,0.74,3.614-0.715,4.772c-0.807,0.64-1.632,1.295-2.45,1.962     c0.418,0.294,0.782,0.679,1.043,1.137c0.563,0.961,1.019,1.752-0.297,5.585c1.128,0.006,2.231,0.552,2.898,1.549l4.312,6.353     c0.51,0.197,0.971,0.519,1.353,0.952c1.298,1.464,1.146,3.699-0.321,4.988C321.986,106.253,320.967,107.138,319.524,107.138z" style="fill:#CC3625;"/></g><g><path d="M223.021,103.912c-0.288,0-0.582-0.04-0.864-0.109c-0.928-0.233-1.719-0.833-2.195-1.662     c-1.744-3.017,0.288-5.306,7.25-10.388c-0.376-0.288-0.7-0.655-0.937-1.073c-0.576-0.992-0.716-2.183-0.397-3.354     c0.467-1.71,2.814-4.163,6.413-7.071c-0.146-0.864,0.049-1.74,0.625-2.741c-3.051,1.492-4.831,1.811-6.298,1.477     c-1.168-0.27-2.132-0.97-2.711-1.977c-0.743-1.283-0.595-2.865,0.303-3.979c-1.301,0.209-2.668-0.327-3.469-1.485     c-1.106-1.607-0.7-3.806,0.907-4.916c31.795-21.886,35.607-21.01,37.023-20.688c1.119,0.249,2.041,0.919,2.596,1.883     c0.749,1.292,0.804,2.283,0.106,3.423c0.733-0.212,1.268-0.173,1.897-0.03c0.959,0.219,1.844,0.867,2.329,1.716     c1.268,2.202,0.582,4.079-2.826,7.414c3.348-1.965,6.701-3.893,9.939-5.737c1.692-0.961,3.845-0.373,4.815,1.319     c0.4,0.704,0.54,1.486,0.431,2.232c0.709,0.403,1.291,0.976,1.704,1.692c1.91,3.305-0.873,5.249-7.599,9.937     c-4.19,2.926-9.915,6.741-15.974,10.779c-2.423,1.616-5.115,3.408-7.862,5.255c0.976,1.686,0.394,3.848-1.295,4.824     c-0.367,0.212-0.761,0.352-1.155,0.418c-2.29,1.055-12.187,6.941-20.904,12.314C224.313,103.73,223.67,103.912,223.021,103.912z" style="fill:#CC3625;"/></g><g><path d="M189.998,130.507c-0.191,0-0.391-0.015-0.6-0.048c-1.04-0.176-1.965-0.819-2.49-1.731     c-0.3-0.519-0.458-1.089-0.473-1.662c-1.347,0.63-2.062,0.658-2.972,0.437c-0.94-0.228-1.795-0.861-2.274-1.701     c-0.391-0.676-0.533-1.289-0.5-1.871c-4.042,2.174-4.918,1.974-5.825,1.755c-0.946-0.221-1.858-0.888-2.347-1.734     c-1.665-2.88,0.097-5.27,7.568-11.719c-0.506-1.449-0.012-2.929,2.799-6.17l-6.255,3.614c-1.592,0.913-3.624,0.461-4.669-1.046     c-1.049-1.513-0.765-3.572,0.655-4.742l14.115-11.637c-8.984,5.925-15.588,10.17-15.694,10.236     c-1.607,1.031-3.745,0.601-4.828-0.976c-1.08-1.577-0.707-3.724,0.84-4.852c0.076-0.058,6.41-4.661,14.409-10.109     c-1.198,0.082-2.393-0.594-3.063-1.698c-0.995-1.643-0.498-3.781,1.122-4.815c4.682-2.978,9.588-6.219,14.146-9.336     c-0.194-0.2-0.367-0.431-0.516-0.686c-0.973-1.689-0.397-3.848,1.295-4.824l19.488-11.252c0.81-0.47,1.777-0.591,2.68-0.354     c0.904,0.242,1.677,0.837,2.144,1.646c0.342,0.591,0.567,1.176,0.616,1.795l14.83-8.563c0.813-0.467,1.777-0.594,2.681-0.349     c0.903,0.24,1.677,0.831,2.146,1.641c1.971,3.42-0.746,6.261-10.479,13.632c-2.456,1.862-5.379,3.994-8.739,6.386     c0.079,0.115,0.155,0.23,0.221,0.352c0.867,1.495,0.521,3.393-0.81,4.494l-14.342,11.829c0.879,0.249,1.635,0.833,2.095,1.631     c1.407,2.441-0.294,4.139-2.092,5.937c-0.997,0.995-2.404,2.359-4.005,3.917c-1.297,1.255-3.026,2.938-4.83,4.712     c0.358,0.291,0.661,0.643,0.895,1.046c0.876,1.525,0.503,3.462-0.879,4.545c-0.555,0.437-1.116,0.882-1.68,1.332     c0.431,0.297,0.794,0.685,1.064,1.146c0.461,0.803,0.601,1.501,0.476,2.208c2.99-1.783,3.912-1.977,5.23-1.659     c0.937,0.227,1.792,0.867,2.277,1.701c1.44,2.508,0.382,3.712-5.503,10.4c-1.137,1.292-2.283,2.578-3.217,3.618     c-0.209,0.931-0.794,1.777-1.686,2.292c-0.164,0.097-0.34,0.179-0.513,0.246C192.018,129.919,191.168,130.507,189.998,130.507z" style="fill:#CC3625;"/></g><g><path d="M199.268,361.484c-0.3,0-0.594-0.055-0.922-0.128c-0.925-0.23-1.725-0.843-2.201-1.661     c-0.977-1.692-0.4-3.857,1.289-4.834c0.206-0.121,0.421-0.212,0.64-0.291c0.682-0.357,2.55-1.485,4.069-2.419     c1.662-1.031,3.839-0.516,4.864,1.134c1.028,1.661,0.515,3.839-1.14,4.869C201.787,360.678,200.489,361.484,199.268,361.484z      M200.99,354.874c0.506,0.297,0.949,0.728,1.265,1.273C201.918,355.571,201.478,355.159,200.99,354.874z" style="fill:#07938A;"/></g><g><path d="M214.374,346.299c-0.503,0-0.946-0.049-1.343-0.14c-1.376-0.315-2.499-1.122-3.163-2.268     c-0.977-1.692-0.397-3.857,1.292-4.834c1.237-0.715,2.726-0.588,3.818,0.188c4.387-0.376,20.661-8.49,71.787-43.215     c8.028-5.452,8.022-5.452,9.618-5.082l-0.789,3.444l-0.909,3.408c1.34,0.364,2.353-0.176,2.547-0.284     c-0.491,0.284-3.274,2.171-6.501,4.359C237.998,337.693,221.011,346.299,214.374,346.299z" style="fill:#07938A;"/></g><g><path d="M191.102,163.834c-0.416,0-0.797-0.036-1.149-0.118c-1.304-0.297-2.377-1.07-3.014-2.177     c-0.973-1.689-0.397-3.848,1.289-4.824c23.863-13.818,49.755-30.589,61.28-40.286c-11.395,6.198-31.347,18.727-49.418,30.811     c-0.813,0.542-1.816,0.728-2.765,0.5c-0.952-0.218-1.768-0.828-2.256-1.674c-2.289-3.957,0.709-7.426,14.503-17.12     c-0.376-0.303-0.697-0.67-0.943-1.101c-0.974-1.689-0.394-3.851,1.298-4.824c0.846-0.491,1.813-0.588,2.687-0.349     c3.356-1.201,13.833-8.263,19.024-11.762c9-6.073,9.739-6.567,11.677-6.119c0.952,0.218,1.81,0.855,2.305,1.701     c0.749,1.304,0.895,2.505,0.233,3.891c10.288-5.582,12.035-5.176,13.439-4.846c1.137,0.267,2.077,0.946,2.641,1.923     c0.643,1.116,1.056,2.341,0.637,3.984c14.84-9.606,21.383-12.693,24.967-11.871c1.292,0.294,2.354,1.061,2.99,2.162     c0.977,1.689,0.4,3.848-1.292,4.824c-1.128,0.646-2.468,0.61-3.523,0.009c-5.652,1.161-28.127,16.522-44.685,27.841     C211.108,154.856,197.321,163.834,191.102,163.834z" style="fill:#07938A;"/></g><g><path d="M102.802,246.534c-1.216,0-2.398-0.628-3.054-1.75c-0.979-1.68-0.418-3.839,1.259-4.827     c23.936-14.105,51.556-30.534,78.688-46.854l-83.133,48c-1.671,0.967-3.809,0.409-4.8-1.25c-0.989-1.659-0.464-3.802,1.176-4.818     l6.413-3.96c-1.368,0.188-2.762-0.434-3.514-1.686c-0.992-1.656-0.473-3.796,1.17-4.815l2.96-1.834     c-0.164-0.033-0.315-0.069-0.458-0.106c-1.219-0.294-2.217-1.025-2.811-2.053c-0.967-1.671-0.406-3.814,1.255-4.803     c11.874-7.068,24-14.542,35.207-21.701c-26.396,15.521-28.333,15.042-30.067,14.612c-1.025-0.255-1.874-0.889-2.396-1.786     c-0.907-1.567-0.476-3.566,0.995-4.627l20.44-14.752l-9.348,5.4c-6.037,3.521-9.97,5.755-10.055,5.804     c-1.695,0.958-3.845,0.37-4.812-1.316c-0.964-1.692-0.382-3.842,1.301-4.815l3.724-2.15c-0.986,0.127-1.541-0.003-2.02-0.115     c-1.186-0.276-2.159-0.986-2.738-1.989c-0.549-0.955-0.688-2.101-0.388-3.226c0.373-1.377,0.901-3.335,11.417-10.828     c-0.613-2.198,1.146-3.933,5.036-6.619c-0.127-0.17-0.249-0.349-0.357-0.537c-1.016-1.759-0.434-3.172,0.615-4.33     c-0.716-0.294-1.316-0.822-1.707-1.498c-1.795-3.111,0.973-5.206,4.806-8.105c2.581-1.956,6.089-4.46,10.152-7.365     c0.397-0.285,0.813-0.576,1.237-0.885c-0.058-0.009-0.115-0.021-0.167-0.033c-1.04-0.246-1.898-0.879-2.423-1.783     c-0.801-1.386-0.57-3.135,0.561-4.266l3.605-3.605c-1.634,1.104-3.26,2.214-4.821,3.312c-1.598,1.112-3.802,0.725-4.918-0.874     c-1.119-1.601-0.725-3.802,0.873-4.921c24.855-17.365,27.996-16.671,29.513-16.334c1.106,0.249,2.025,0.909,2.58,1.871     c0.801,1.386,0.57,3.129-0.561,4.26l-3.487,3.493c2.116-1.368,4.236-2.753,6.276-4.112c0.813-0.537,1.813-0.718,2.763-0.497     c0.949,0.224,1.765,0.828,2.253,1.673c1.021,1.774,0.994,3.502-1.028,6.095c10.455-5.818,11.395-5.576,12.411-5.318     c0.918,0.237,1.752,0.861,2.229,1.686c1.559,2.699-0.564,4.612-2.766,6.28c0.44,0.303,0.813,0.697,1.08,1.155     c0.282,0.494,0.467,0.961,0.549,1.422c2.987-1.737,4.767-2.759,4.824-2.79c1.686-0.97,3.83-0.394,4.812,1.28     c0.977,1.677,0.418,3.826-1.246,4.818c-0.04,0.024-0.919,0.546-2.453,1.453c0.601,0.309,1.104,0.785,1.446,1.376     c0.458,0.797,0.907,2.117,0.431,3.866c-0.121,0.442-0.267,0.973-0.643,1.68c1.14,0.018,2.253,0.588,2.914,1.616     c1.022,1.58,0.628,3.681-0.9,4.782l-29.373,21.195c9.706-5.928,19.918-12.265,29.736-18.454c0.813-0.51,1.801-0.673,2.732-0.44     c0.931,0.23,1.731,0.834,2.21,1.665c2.244,3.881-0.891,8.205-12.42,17.117c-4.566,3.529-10.434,7.729-17.529,12.547     c6.353-3.721,13.032-7.687,19.918-11.807l111.378-69.083c1.656-1.025,3.82-0.524,4.852,1.122     c1.043,1.641,0.559,3.812-1.079,4.857c-0.049,0.03-0.589,0.373-1.564,0.995l3.505-2.025c1.68-0.967,3.814-0.413,4.803,1.246     c0.922,1.538,0.534,3.493-0.83,4.579l11.049-6.383c1.691-0.973,3.851-0.4,4.827,1.292c1.425,2.468,0.164,4.548-3.274,7.389     l1.291-0.74c1.687-0.979,3.846-0.4,4.821,1.292c0.977,1.686,0.4,3.848-1.291,4.824l-211.896,122.34     C104.008,246.382,103.402,246.534,102.802,246.534z" style="fill:#07938A;"/></g><g><path d="M75.506,227.492c-0.313,0-0.612-0.045-0.931-0.127c-0.937-0.23-1.771-0.858-2.25-1.686     c-1.24-2.147-0.509-3.654,3.084-8.035c-0.786,0.185-1.219,0.082-1.695-0.031c-0.952-0.221-1.834-0.873-2.323-1.719     c-0.876-1.522-0.585-3.053,0.346-6.774c-0.461-0.303-0.852-0.707-1.131-1.194c-0.837-1.456-0.776-2.362,0.934-5.804     c-0.634-1.231-0.491-2.723,0.37-3.814c1.413-1.783,2.896-3.675,4.309-5.509c-0.009-0.006-0.021-0.009-0.037-0.009     c-1.028-0.179-1.922-0.807-2.444-1.71c-1.037-1.801-0.977-3.023,2.274-6.813c-0.045,0.027-0.094,0.054-0.139,0.079     c-1.556,0.922-3.56,0.513-4.633-0.949c-1.077-1.455-0.874-3.487,0.467-4.706l1.31-1.192c-0.158-0.024-0.297-0.055-0.428-0.085     c-1.021-0.242-1.871-0.87-2.386-1.765c-1.277-2.21-2.501-4.333,15.552-18.611c-1.61-2.902,0.324-5.17,6.855-9.967     c-0.397-0.3-0.737-0.676-0.985-1.116c-0.582-0.998-0.722-2.198-0.397-3.378c0.458-1.673,2.693-4.045,6.134-6.853     c-0.169-0.943,0.067-1.904,0.807-3.05c-2.232,0.946-3.675,1.128-4.912,0.843c-1.165-0.264-2.128-0.964-2.711-1.974     c-0.709-1.234-0.597-2.735,0.2-3.839c-1.358,0.294-2.826-0.23-3.663-1.45c-1.107-1.61-0.704-3.808,0.903-4.915     c31.78-21.871,35.586-21.01,37.02-20.691c1.119,0.255,2.041,0.922,2.596,1.889c0.737,1.273,0.797,2.252,0.139,3.369     c0.807-0.264,1.368-0.228,2.035-0.076c0.958,0.222,1.84,0.868,2.335,1.717c1.261,2.192,0.594,4.072-2.769,7.341     c3.442-2.004,6.88-3.972,10.212-5.853c1.695-0.958,3.842-0.367,4.803,1.322c0.424,0.746,0.548,1.586,0.409,2.368     c0.658,0.4,1.204,0.955,1.598,1.628c1.913,3.317-0.904,5.279-7.708,10.009c-4.263,2.962-10.076,6.828-16.234,10.919     c-2.607,1.731-5.513,3.666-8.478,5.646c0.885,1.565,0.455,3.545-1.006,4.603c-4.833,3.484-9.797,7.162-14.458,10.701     c0.818,0.158,1.583,0.601,2.128,1.304c1.134,1.453,0.958,3.542-0.406,4.779l-3.057,2.784c0.907,0.239,1.683,0.833,2.153,1.649     c0.804,1.395,0.561,3.156-0.585,4.284c-3.124,3.069-6.371,6.325-9.279,9.297c0.388,0.313,0.716,0.694,0.971,1.128     c1.276,2.208,1.583,2.75-9.81,17.256c0.076,0.697-0.051,1.413-0.391,2.049c-0.331,0.631-0.676,1.301-1.019,1.959     c0.042,0.058,0.082,0.118,0.115,0.182c0.697,1.209,0.64,2.313,0.091,4.682c1.907-1.183,4.021-2.538,5.937-3.809     c0.81-0.534,1.811-0.715,2.756-0.491c0.949,0.225,1.765,0.831,2.25,1.674c1.552,2.677-0.294,4.566-3.972,8.323     c-0.07,0.07-0.14,0.146-0.215,0.218c0.012,0.037,0.021,0.07,0.03,0.106c0.976-0.449,1.453-0.4,2.286-0.194     c0.931,0.23,1.734,0.834,2.217,1.662c0.976,1.688,0.4,3.848-1.289,4.83c-0.182,0.103-0.37,0.191-0.561,0.261     c-0.604,0.346-2.174,1.325-3.46,2.135C78.869,226.373,77.016,227.492,75.506,227.492z M84.572,218.62     c0.479,0.828,1.176,1.319,1.904,1.568C85.703,219.917,85.015,219.384,84.572,218.62z" style="fill:#07938A;"/></g><g><path d="M189.695,464.523c-0.306,0-0.594-0.078-0.988-0.182c-0.916-0.236-1.695-0.837-2.165-1.649     c-1.483-2.577-0.122-4.403,5.212-10.024c-0.127-1.013,0.066-2.565,0.503-6.053c0.006-0.042,0.012-0.097,0.018-0.151     c-0.14-0.006-0.282-0.03-0.428-0.061c-0.994-0.2-1.935-0.867-2.441-1.753c-0.185-0.314-0.254-0.442-1.974-5.118     c-0.919,0.559-1.837,0.843-2.959,0.612c-0.989-0.199-1.898-0.854-2.405-1.734c-1.234-2.128-0.734-2.795,3.235-7.714     c-0.718-1.564-0.212-2.619,1.665-4.62c-0.245-0.013-0.485-0.062-0.722-0.115c-1.016-0.243-1.858-0.867-2.374-1.759     c-1.968-3.415,1.031-6.386,9.045-14.337c1.104-1.098,2.426-2.407,3.672-3.681c-0.261-0.473-0.434-0.928-0.758-3.712     c-0.943-0.218-1.765-0.83-2.253-1.674c-0.303-0.521-0.658-1.14-0.858-4.826c-0.088-0.019-0.173-0.024-0.258-0.043     c-1.025-0.182-2.029-0.886-2.55-1.789c-0.418-0.728-0.564-1.57-0.418-2.396c0.442-2.438,0.918-5.167,1.128-6.495     c-0.109-0.849,0.091-1.716,0.591-2.449l3.157-4.604l-2.838-3.645c-2.58,1.644-3.629,1.649-4.633,1.443     c-0.995-0.2-1.962-0.886-2.468-1.759c-1.149-2.001-0.928-2.492,3.402-9.108c-0.303-0.601-0.439-1.273-0.373-1.965l0.455-4.549     c-1.173,0.722-2.329,1.456-3.214,2.008c-5.346,3.354-5.552,3.486-7.15,3.093c-0.928-0.23-1.734-0.837-2.213-1.662     c-0.473-0.824-0.931-2.171-0.449-3.954c0.625-2.304,3.263-5.306,8.084-9.193c-0.222-0.242-0.418-0.509-0.582-0.794     c-0.673-1.171-0.71-2.147-0.313-3.021c-3.396,1.674-5.464,2.135-6.971,1.808c-1.188-0.267-2.165-0.971-2.756-1.995     c-0.409-0.71-0.558-1.553-0.427-2.354c-1.646,0.88-2.562,1.365-2.62,1.396c-1.704,0.897-3.814,0.272-4.746-1.419     c-0.23-0.413-0.367-0.85-0.418-1.299c-4.145,1.632-5.146,1.377-5.885,1.195c-1.074-0.273-1.959-0.934-2.493-1.855     c-0.313-0.54-0.615-1.226-0.804-2.057c-5.418,2.814-6.019,2.663-7.041,2.396c-0.913-0.248-1.716-0.854-2.183-1.667     c-0.928-1.607-0.455-3.651,1.062-4.688c-0.886-0.46-1.607-1.146-2.104-1.995c-0.482-0.843-0.604-1.831-0.331-2.765     c0.033-0.122,0.076-0.243,0.127-0.358c-4.885,1.898-6.116,1.589-7.071,1.353c-1.131-0.285-2.062-0.97-2.62-1.929     c-0.661-1.146-1.295-3.057-0.561-5.634c-0.425,0.061-0.858,0.049-1.28-0.055c-0.958-0.212-1.786-0.818-2.277-1.673     c-0.573-1.001-1.122-2.663-0.47-4.925c0.118-0.406,0.255-0.879,0.5-1.462l-8.372,4.84c-1.68,0.971-3.823,0.4-4.809-1.268     c-0.985-1.668-0.439-3.814,1.222-4.815c1.316-0.794,2.641-1.595,3.975-2.401c-7.511,3.688-8.554,3.414-9.573,3.147     c-0.985-0.255-1.801-0.879-2.301-1.74c-0.549-0.952-1.08-2.528-0.482-4.646c0.085-0.297,0.2-0.606,0.336-0.928     c-0.136,0.03-0.27,0.061-0.406,0.091c-1.17,0.673-1.816,1.037-1.874,1.08c-1.346,0.77-2.996,0.558-4.103-0.425     c-0.776-0.03-1.489-0.115-2.138-0.267c-2.923-0.674-4.415-2.335-5.148-3.608c-0.513-0.886-0.789-1.698-0.598-2.632     c-1.201,0.14-2.226,0.103-3.063-0.098c-2.035-0.485-3.096-1.686-3.626-2.602c-0.23-0.4-0.373-0.831-0.434-1.261     c-3.693,0.976-5.082,0.648-6.049,0.406c-1.877-0.443-2.854-1.547-3.339-2.39c-0.221-0.382-0.437-0.855-0.604-1.407     c-1.831,0.213-3.447,0.182-4.857-0.115c-2.568-0.546-4.566-1.946-5.779-4.045c-0.555-0.97-0.691-2.116-0.379-3.238     c0.321-1.17,1.446-2.613,3.657-4.523c-2.392,1.176-3.724,1.831-3.812,1.867c-1.677,0.825-3.699,0.194-4.621-1.425     c-0.667-1.171-0.588-2.577,0.1-3.651c-0.294-0.236-0.555-0.521-0.77-0.849c-0.197-0.31-0.336-0.631-0.431-0.964     c-0.985,0.618-1.968,1.23-2.938,1.837c-1.568,0.977-3.626,0.589-4.721-0.903c-1.092-1.485-0.852-3.572,0.549-4.778     c0.497-0.425,1.046-0.892,1.644-1.401c-0.992-0.255-1.847-0.892-2.353-1.765c-1.286-2.226-0.628-4.202,3.145-8.108     c-4.788,2.845-5.768,2.947-7.174,2.602c-0.934-0.23-1.822-0.891-2.308-1.722c-0.946-1.644-1.91-3.32,5.313-10.585     c-0.315,0.009-0.631-0.021-0.94-0.1c-0.94-0.225-1.744-0.831-2.223-1.665c-0.588-1.016-0.74-2.007-0.416-3.099     c-2.338,1.646-4.669,3.33-6.898,4.979c-0.81,0.6-1.835,0.828-2.823,0.622c-0.985-0.206-1.834-0.822-2.338-1.692     c-1.101-1.904-1.88-3.26,6.607-11.492c-0.094-0.118-0.173-0.243-0.252-0.373c-0.958-1.656-0.788-2.859,1.234-5.901     c-5.067,3.472-6.674,4.288-8.578,3.86c-1.016-0.228-1.895-0.87-2.411-1.762c-1.043-1.81-0.679-3.544,1.043-5.758l-0.773,0.439     c-1.149,0.664-4.209,2.417-5.977-0.625c-0.261-0.452-0.421-0.889-0.5-1.319c-0.349,0.027-0.73,0.003-1.149-0.104     c-0.922-0.239-1.707-0.837-2.18-1.658c-1.798-3.108,0.558-5.437,8.33-12.077c-0.337-0.27-0.619-0.601-0.84-0.983     c-0.921-1.598-1.094-3.093,1.44-6.371c-0.858-0.312-1.586-0.91-2.043-1.704c-0.807-1.404-0.561-3.175,0.603-4.303l1.528-1.479     c-0.531,0.097-1.003,0.067-1.516-0.048c-0.964-0.215-1.862-0.874-2.356-1.729c-0.658-1.14-0.612-2.514,0.033-3.587     c-0.949,0.257-1.649,0.243-2.341,0.082c-1.055-0.249-1.925-0.888-2.456-1.813c-0.54-0.931-0.707-1.698-0.512-2.447     c-0.743,0.115-1.137,0.021-1.468-0.058c-1.052-0.249-1.919-0.886-2.447-1.798c-1.668-2.89-1.019-5.285,11.986-14.715     c-0.345-1.946,1.034-3.96,4.236-6.986c-1.207,0.073-2.401-0.479-3.126-1.538c-1.04-1.522-0.731-3.596,0.712-4.748l14.424-11.541     c-7.098,4.667-12.016,7.842-12.11,7.899c-1.607,1.034-3.745,0.603-4.831-0.974c-1.076-1.577-0.706-3.727,0.84-4.854     c0.079-0.058,6.368-4.627,14.36-10.076c-1.222,0.079-2.396-0.594-3.069-1.695c-0.994-1.64-0.497-3.778,1.116-4.812     c4.672-2.993,9.575-6.243,14.115-9.366c-0.182-0.197-0.346-0.416-0.482-0.658c-0.977-1.689-0.397-3.848,1.292-4.824     l18.848-10.879c1.688-0.979,3.851-0.4,4.821,1.292c0.342,0.591,0.567,1.177,0.615,1.792l14.782-8.532     c1.689-0.977,3.848-0.397,4.824,1.294c1.962,3.399-0.725,6.222-10.364,13.545c-2.144,1.622-4.639,3.459-7.478,5.494     c0.115,0.149,0.225,0.313,0.325,0.479c0.873,1.513,0.506,3.436-0.855,4.524l-15.294,12.238c0.91,0.215,1.74,0.792,2.25,1.67     c1.58,2.735-0.482,4.424-3.335,6.762c-1.625,1.334-3.927,3.163-6.541,5.243c-0.728,0.579-1.531,1.222-2.396,1.91     c0.922,0.297,1.683,0.906,2.165,1.74c0.946,1.641,0.434,3.733-1.159,4.746c-0.542,0.346-1.088,0.697-1.637,1.049     c0.513,0.309,0.937,0.74,1.243,1.267c0.331,0.567,0.534,1.074,0.594,1.556c2.447-1.219,3.708-1.386,4.891-1.113     c1.061,0.249,1.938,0.895,2.474,1.822c1.729,2.993-0.722,5.079-5.597,9.236c-1.18,1.004-2.568,2.159-4.16,3.46     c0.197,0.212,0.37,0.446,0.521,0.704c0.807,1.404,0.561,3.178-0.606,4.303l-4.351,4.214c0.87,0.306,1.607,0.916,2.068,1.713     c1.219,2.092,0.097,3.608-1.192,4.836c1.547-0.591,2.092-0.455,2.705-0.31c0.934,0.23,1.798,0.874,2.28,1.708     c1.267,2.192,0.066,3.738-1.52,5.143c1.541-0.513,2.138-0.37,2.711-0.23c1.016,0.245,1.859,0.87,2.374,1.765     c0.931,1.613,0.452,3.675-1.104,4.706c-0.609,0.406-1.225,0.818-1.844,1.234c0.212,0.215,0.395,0.452,0.549,0.718     c1.416,2.457,0.349,4.53-3.542,8.199c0.977,0.279,1.78,0.904,2.29,1.78c1.006,1.743,0.81,2.832-1.577,6.267     c1.562-0.831,3.502-0.382,4.536,1.074c0.388,0.546,0.604,1.17,0.646,1.801c5.364-2.941,9.063-4.211,11.074-3.793     c1.282,0.27,2.332,1.01,2.959,2.095c0.282,0.497,0.434,0.961,0.488,1.395c4.063-2.022,4.9-1.822,5.688-1.625     c0.937,0.227,1.832,0.888,2.313,1.722c0.879,1.522,0.507,3.457-0.873,4.542c-3.521,2.771-7.165,5.716-10.676,8.621     c5.789-3.496,6.883-3.663,8.396-3.296c0.934,0.228,1.829,0.892,2.311,1.725c1.334,2.308,0.716,3.915-3.745,8.166     c1.119-0.349,2.001-0.388,2.838-0.206c1.134,0.254,2.074,0.934,2.644,1.922c0.376,0.655,0.528,1.252,0.519,1.798     c20.116-12.441,47.533-29.306,76.423-46.817c4.815-3.105,9.682-6.231,14.566-9.348c63.461-40.464,97.416-58.664,116.021-66.666     c25.313-13.33,28.271-12.59,30.109-12.138c1.177,0.297,2.146,1.003,2.711,2.001c0.97,1.671,0.412,3.812-1.243,4.797l-1.638,0.979     c1.055-0.024,1.698,0.13,2.231,0.255c1.91,0.458,2.911,1.583,3.402,2.438c0.219,0.367,0.425,0.837,0.558,1.404     c0.589,0.036,1.152,0.112,1.68,0.224c2.554,0.546,4.549,1.938,5.756,4.027c0.964,1.665,0.406,3.793-1.237,4.791l-6.683,4.036     c0.685,0.515,1.128,1.107,1.431,1.619c0.188,0.333,0.321,0.691,0.4,1.064l0.272-0.167c1.65-1.016,3.803-0.512,4.834,1.119     c0.752,1.192,0.703,2.659,0,3.778c1.23-0.249,2.189-0.273,2.935-0.091c1.226,0.291,2.231,1.021,2.832,2.059     c1.777,3.087-0.673,4.585-4.718,7.074c-0.71,0.439-1.534,0.937-2.45,1.495c0.431-0.088,0.837-0.167,1.231-0.23     c2.377-1.155,3.365-1.204,4.306-0.992c0.576,0.133,1.109,0.397,1.553,0.767c0.563,0.082,1.03,0.182,1.431,0.267     c3.244,0.698,4.882,2.502,5.683,3.891c0.576,1,0.716,2.195,0.388,3.359c-0.297,1.062-1.2,2.317-2.868,3.872     c6.234-3.666,6.458-3.617,7.732-3.284c0.915,0.24,1.704,0.837,2.177,1.656c1.74,3.005-1.086,5.061-3.348,6.713     c-1.638,1.195-4.117,2.896-7.38,5.046c-1.328,0.879-2.809,1.844-4.428,2.896c1.358-0.136,2.741,0.534,3.451,1.811     c0.151,0.288,0.267,0.591,0.346,0.9c4.693-1.231,6.567-0.801,7.835-0.509c2.322,0.527,3.518,1.853,4.1,2.875     c0.57,0.982,0.703,2.153,0.376,3.293c-0.474,1.649-2.335,3.65-6.55,6.613c0.206,0.015,0.412,0.048,0.625,0.1     c0.928,0.23,1.729,0.831,2.207,1.662c0.576,1.003,1.128,2.68,0.467,4.96c-0.521,1.801-1.431,4.888-10.491,12.471     c-0.03,0.516-0.176,1.019-0.412,1.471c0.485-0.079,0.982-0.061,1.468,0.07c0.916,0.24,1.691,0.833,2.158,1.649     c0.57,0.989,0.704,2.153,0.364,3.284c-0.533,1.777-2.638,3.845-7.653,7.05c0.2,0.207,0.376,0.44,0.521,0.694     c0.443,0.758,0.861,1.953,0.57,3.53c1.073,0.127,2.062,0.74,2.638,1.74c0.521,0.91,1.031,2.417,0.455,4.439     c-1.122,3.96-7.563,9.909-18.69,17.72c-0.861,0.915-2.02,1.897-3.45,2.989c0.085,0.024,0.169,0.043,0.254,0.061     c0.94,0.23,1.753,0.85,2.232,1.68c0.521,0.892,0.648,1.953,0.376,2.984c-0.965,3.541-8.108,8.199-49.644,31.874     c-40.54,25.543-64.409,39.722-77.839,46.053c-1.671,1.104-3.248,2.165-4.724,3.184c0.473,0.304,0.874,0.722,1.152,1.207     c0.37,0.643,0.531,1.383,0.458,2.122l-0.549,5.482c0.931,0.23,1.738,0.837,2.22,1.662c1.092,1.892,0.792,2.522-2.435,7.453     c0.069,0.072,0.13,0.146,0.191,0.23l3.536,4.53c0.151-0.109,0.303-0.225,0.439-0.328c1.383-1.043,3.32-0.934,4.572,0.255     c1.255,1.201,1.456,3.129,0.473,4.561l-6.301,9.182c-0.037,0.17-0.082,0.34-0.14,0.497c-0.042,0.315-0.097,0.661-0.161,1.049     c0.049,0.024,0.097,0.043,0.146,0.061c1.234,0.583,2.032,1.808,2.041,3.172c0.012,1.201,0.042,2.522,0.091,3.724     c0.903,0.255,1.756,0.903,2.223,1.704c0.249,0.442,0.406,0.922,0.458,1.432c0.045,0.473,0.091,0.952,0.139,1.449     c0.731-0.364,1.446-0.516,2.423-0.273c0.925,0.23,1.716,0.831,2.192,1.656c1.322,2.292,0.34,4.487-2.771,7.999     c2.98-1.856,3.381-1.832,4.639-1.522c0.943,0.218,1.768,0.837,2.25,1.674c0.813,1.4,0.567,3.165-0.595,4.3     c-4.333,4.208-10.4,10.127-14.582,14.251c0.188,1.183-0.676,2.45-3.557,6.04c0.097,0.255,0.254,0.686,0.558,1.516     c0.264,0.716,0.706,1.935,1.152,3.142c0.819-0.431,1.674-0.655,2.687-0.455c0.992,0.2,1.914,0.861,2.417,1.747     c0.743,1.273,0.67,2.413,0.009,7.75c0.03,0,0.061,0.006,0.091,0.019c1,0.2,1.946,0.867,2.453,1.752     c1.376,2.384,0.225,3.591-3.199,7.175c-0.349,0.357-0.776,0.807-1.237,1.291l1.316,2.778c-0.339,0.176-2.071,1.2-3.335,1.946     C191.584,463.924,190.565,464.523,189.695,464.523z M162.963,334.164c-0.027,0.043-0.055,0.091-0.082,0.127     c8.963-3.838,38.09-19.097,132.294-76.723c-14.003,8.22-29.612,17.353-45.189,26.438c-28.36,16.55-51.077,29.709-67.518,39.103     C173.949,327.979,167.654,331.557,162.963,334.164z M327.256,214.708c-11.262,6.189-26.223,14.164-45.955,24.6     c-31.56,16.689-67.33,35.607-94.993,52.017c-31.468,18.673-41.168,27.587-44.1,31.528c17.398-6.773,84.167-46.307,146.503-84.418     c8.812-5.713,16.622-10.54,23.408-14.373C317.256,220.897,322.313,217.768,327.256,214.708z M124.339,302.647     c-0.2,0.151-0.397,0.315-0.585,0.467c0.722-0.376,1.474-0.776,2.262-1.188C125.449,302.168,124.888,302.411,124.339,302.647z      M114.809,294.788c-3.736,2.528-6.686,4.627-8.708,6.229c0.23-0.019,0.473-0.037,0.731-0.067     c2.104-1.51,5.637-4.026,10.336-7.338C116.365,294.018,115.579,294.412,114.809,294.788z M76.761,287.28     c1.101,0.091,2.411-0.03,3.917-0.352c0.807-1.37,2.141-3.159,4.5-5.549C81.41,283.806,78.535,285.807,76.761,287.28z      M152.523,253.123c-17.38,12.107-32.138,21.853-44.233,28.82c4.563-2.286,10-5.124,16.477-8.642L307.48,161.081     c-11.48,5.785-26.429,13.375-43.136,22.014l-58.686,35.446c-7.034,4.575-14.09,9.185-21.098,13.757     C172.542,240.142,161.914,247.056,152.523,253.123z M306.644,180.45c-33.185,16.996-82.318,48.215-129.354,80.035     c29.771-17.359,59.798-35.043,85.732-50.589c8.138-5.476,16.004-10.801,23.457-15.846     C294.29,188.768,300.955,184.268,306.644,180.45z M236.706,235.924c-12.138,8.026-23.875,15.676-35.043,22.792     c26.398-15.47,54.789-32.311,79.225-46.856c-7.459,4.084-15.652,8.548-24.624,13.426     C249.769,228.814,243.228,232.371,236.706,235.924z M293.047,244.039c-4.215,2.723-8.575,5.594-13.051,8.581l42.154-25.928     c-2.281,1.183-4.864,2.583-7.781,4.254C307.766,235.012,300.591,239.42,293.047,244.039z M285.054,150.881     c-20.134,10.913-50.067,28.25-94.57,55.689c-23.409,14.436-46.553,29.012-66.287,41.562     c17.771-9.081,38.023-19.585,58.524-30.534c10.743-5.958,21.538-11.959,32.129-17.881     C242.901,179.432,266.34,162.824,285.054,150.881z M347.966,194.408c-9.272,2.565-33.633,13.436-97.555,53.306     c8.845-4.721,18.057-9.609,27.59-14.648C305.673,218.432,336.389,202.182,347.966,194.408z M342.563,167.36     c-0.558,0.516-1.262,1.119-2.165,1.835c0.928-0.67,1.716-1.277,2.347-1.816C342.689,167.373,342.629,167.363,342.563,167.36z" style="fill:#07938A;"/></g></g></g><g id="Layer_1"/></svg>