<?xml version="1.0" ?><!DOCTYPE svg  PUBLIC '-//W3C//DTD SVG 1.1//EN'  'http://www.w3.org/Graphics/SVG/1.1/DTD/svg11.dtd'><svg enable-background="new 0 0 128 128" id="Слой_1" version="1.1" viewBox="0 0 128 128" xml:space="preserve" xmlns="http://www.w3.org/2000/svg" xmlns:xlink="http://www.w3.org/1999/xlink"><g><path d="M64,2C29.758,2,2,29.758,2,64c0,14.502,4.979,27.841,13.321,38.401   c6.382,8.079,58.426,23.021,63.034,21.929C105.675,117.854,126,93.3,126,64c0-3.307-0.259-6.554-0.758-9.721   c-1.287-8.173-16.207-33.406-21.3-37.701C93.153,7.482,79.217,2,64,2z" fill="#D8F0F3"/><path d="M103.934,16.587c-2.12-0.751-4.4-1.166-6.779-1.166c-10.193,0-18.614,7.494-20.117,17.267   c-0.545-0.079-1.098-0.133-1.665-0.133c-6.362,0-11.519,5.031-11.519,11.393S69.01,56,75.372,56c1.105,0,15.184,0,15.184,0h17.5   c0,0,9.095,0,9.848,0c2.646,0,5.136-0.622,7.333-1.718C122.866,39.23,115.078,25.984,103.934,16.587z" fill="#FAFCFD"/><path d="M69.334,105.556c-0.567,0-1.12,0.054-1.665,0.133c-1.503-9.773-9.924-17.267-20.117-17.267   c-7.273,0-13.639,3.817-17.245,9.55c-1.129-0.253-2.298-0.408-3.504-0.408c-4.506,0-8.568,1.848-11.469,4.825   C26.688,116.764,44.26,126,64,126c4.942,0,9.742-0.595,14.35-1.688c1.563-2.077,2.503-4.657,2.503-7.364   C80.853,110.587,75.696,105.556,69.334,105.556z" fill="#FAFCFD"/><path d="M45.949,47.298l-2.735,2.945h1.817l1.361-2.825C46.413,47.161,46.061,47.065,45.949,47.298z" fill="#FFFFFF" opacity="0.3"/><path d="M23.951,53.243v12.579c0,1.657,1.343,3,3,3h4.637V50.243h-4.637C25.295,50.243,23.951,51.586,23.951,53.243   z" fill="#E9705B"/><path d="M23.951,63.351v2.736c0,1.511,1.225,2.736,2.736,2.736h4.901v-2.736h-4.901   C25.176,66.086,23.951,64.862,23.951,63.351z" fill="#010203" opacity="0.1"/><path d="M23.951,52.979v2.736c0-1.511,1.225-2.736,2.736-2.736h4.901v-2.736h-4.901   C25.176,50.243,23.951,51.468,23.951,52.979z" fill="#FFFFFF" opacity="0.3"/><path d="M101.621,40.989c-1.261-0.163-2.516,0.362-3.352,1.32l-5.638,6.46c-0.874,1.002-2.165,1.539-3.491,1.454   c-15.891-0.26-21.573-2.881-33.84-3.133l-0.09-0.006c-0.263-0.017-0.485,0.192-0.485,0.455l-0.018,1.522   c-0.012,0.989-0.398,1.952-1.123,2.626c-0.976,0.908-2.284,1.464-3.723,1.464c-2.094,0-3.912-1.178-4.832-2.906H31.588v18.579   h23.44c2.986,0,5.967-0.227,8.919-0.678l37.899-8.095c4.023-0.616,7.22-3.701,7.98-7.699l0.004-0.022   C110.878,46.761,106.953,41.678,101.621,40.989z" fill="#45474A"/><path d="M64,49.694l-6.403,3.471v7.669L64,64.694l6.403-3.861v-7.669L64,49.694z M69.884,53.298l-1.904,1.016   l-5.791-3.224L64,50.108L69.884,53.298z M60.693,51.901l1.116-0.605l5.948,3.311v1.188l-1.191,0.651V55.17L60.693,51.901z    M64.001,56.437l-5.827-3.171l2.139-1.16l5.777,3.216L64.001,56.437z M57.962,53.566l5.856,3.187v7.406l-5.856-3.531V53.566z    M64.182,64.158v-7.404l2.019-1.077v1.385l1.92-1.05v-1.359l1.918-1.023v6.999L64.182,64.158z" fill="#FAFCFD"/><path d="M33.142,53.556c-0.26-0.274-1.251,0.669-0.991,0.943c4.094,3.387,8.177,7.766,12.252,12.893   c0.26,0.274,0.693,0.284,0.967,0.024s0.284-0.693,0.024-0.967C41.686,61.439,37.646,57.057,33.142,53.556z" fill="#010203" opacity="0.1"/><path d="M43.792,53.587c-0.26-0.274-1.251,0.669-0.991,0.943c4.094,3.387,8.177,7.766,12.252,12.893   c0.26,0.274,0.693,0.284,0.967,0.024c0.274-0.26,0.284-0.693,0.024-0.967C52.337,61.469,48.297,57.088,43.792,53.587z" fill="#010203" opacity="0.1"/><path d="M63.691,47.667c-2.189-0.253-4.49-0.449-7.076-0.541c-0.444-0.014-0.89-0.029-1.314-0.038   l-0.09-0.006c-0.263-0.017-0.485,0.192-0.485,0.455l-0.018,1.521c-0.012,0.989-0.398,1.952-1.123,2.626   c-0.363,0.338-0.783,0.606-1.227,0.836c-0.751,0.389-1.591,0.628-2.496,0.628c-2.094,0-3.912-1.178-4.832-2.906h-6.275   C49.568,54.672,57.009,60.747,60.99,68.51h0c0.988-0.1,1.974-0.216,2.956-0.367l20.665-4.414   C80.346,56.987,73.55,51.541,63.691,47.667z" fill="#010203" opacity="0.1"/><path d="M101.846,59.137l-37.899,6.271c-2.951,0.452-5.933,0.678-8.919,0.678h-23.44v2.736h23.44   c2.986,0,5.967-0.227,8.919-0.678l37.899-8.095c4.023-0.616,7.22-3.701,7.98-7.699C109.067,56.348,105.869,58.521,101.846,59.137z" fill="#010203" opacity="0.1"/><path d="M45.031,50.243H31.588v2.736c0,0,16.18,0.171,18.275,0.171   C47.769,53.15,45.951,51.972,45.031,50.243z" fill="#FFFFFF" opacity="0.3"/><path d="M101.621,40.989c-1.261-0.163-2.516,0.362-3.352,1.32l-5.638,6.46   c-0.874,1.002-2.165,1.539-3.491,1.454c-15.891-0.26-21.573-2.881-33.84-3.133l-0.09-0.006c-0.263-0.017-0.485,0.192-0.485,0.455   l-0.018,1.522l0.018,0.302c0-0.263,0.079-0.56,0.342-0.543c12.267,0.252,18.181,2.055,34.073,2.316   c1.327,0.085,2.617-0.452,3.491-1.454l5.638-6.46c0.836-0.958,2.091-1.483,3.352-1.32c4.661,0.603,8.247,3.867,8.375,8.399   C109.888,45.575,106.296,41.593,101.621,40.989z" fill="#FFFFFF" opacity="0.3"/><path d="M32.792,40.899c-0.378,0-0.684,0.306-0.684,0.684v12.764c0,0.378,1.368,0.378,1.368,0V41.582   C33.476,41.205,33.169,40.899,32.792,40.899z" fill="#AFADAD"/><path d="M31.88,68.026v13.676c0,0.504,0.408,0.912,0.912,0.912s0.912-0.408,0.912-0.912V68.026   C33.703,67.522,31.88,67.522,31.88,68.026z" fill="#AFADAD"/><path d="M42.78,67.455L31.789,81.13c-0.316,0.393-0.253,0.967,0.139,1.282c0.168,0.135,0.37,0.201,0.571,0.201   c0.267,0,0.531-0.117,0.711-0.341l10.991-13.676c0.316-0.393,0.253-0.967-0.139-1.282C43.67,67,43.096,67.063,42.78,67.455z" fill="#AFADAD"/><path d="M43.442,40.899c-0.378,0-0.684,0.306-0.684,0.684v12.764c0,0.378,1.368,0.378,1.368,0V41.582   C44.126,41.205,43.82,40.899,43.442,40.899z" fill="#AFADAD"/><path d="M42.624,58.785c-0.715-1.453-1.526-2.977-2.334-4.503c-0.835-1.511-1.666-3.024-2.493-4.417   c-0.817-1.398-1.607-2.688-2.308-3.781c-1.39-2.192-2.433-3.59-2.433-3.59s0.6,1.638,1.676,4c0.531,1.185,1.179,2.551,1.904,4   c0.714,1.454,1.528,2.976,2.336,4.502c0.836,1.51,1.668,3.023,2.494,4.416c0.817,1.398,1.607,2.688,2.308,3.781   c1.389,2.192,2.432,3.591,2.432,3.591s-0.601-1.638-1.678-3.999C43.996,61.6,43.347,60.233,42.624,58.785z" fill="#B28F6F"/><path d="M53.617,58.881c-0.728-1.48-1.554-3.033-2.376-4.587c-0.849-1.54-1.694-3.082-2.534-4.502   c-0.83-1.425-1.632-2.741-2.344-3.855c-1.411-2.236-2.469-3.663-2.469-3.663s0.614,1.667,1.711,4.072   c0.542,1.206,1.202,2.598,1.94,4.073c0.728,1.481,1.555,3.032,2.377,4.586c0.85,1.539,1.696,3.081,2.535,4.501   c0.831,1.425,1.632,2.74,2.344,3.855c1.41,2.236,2.467,3.664,2.467,3.664s-0.615-1.666-1.713-4.071   C55.015,61.749,54.354,60.357,53.617,58.881z" fill="#B28F6F"/><path d="M56.996,65.053c-0.18-0.333-0.594-0.457-0.927-0.276c-0.333,0.179-0.456,0.594-0.276,0.927l1.431,2.648   c0.124,0.229,0.359,0.359,0.602,0.359c0.11,0,0.221-0.026,0.325-0.082c0.333-0.179,0.456-0.594,0.277-0.927L56.996,65.053z" fill="#45474A"/><path d="M43.804,40.626c-0.18-0.332-0.594-0.456-0.927-0.276c-0.333,0.179-0.456,0.594-0.276,0.927l1.431,2.648   c0.124,0.229,0.359,0.359,0.602,0.359c0.11,0,0.221-0.026,0.325-0.082c0.333-0.179,0.456-0.594,0.276-0.927L43.804,40.626z" fill="#45474A"/><path d="M49.196,41.822c-0.059-0.004-0.119,0.037-0.126,0.1l-2.81,23.444l-0.169-0.313   c-0.18-0.333-0.594-0.457-0.927-0.276c-0.333,0.179-0.456,0.594-0.276,0.927l1.431,2.648c0.124,0.229,0.359,0.359,0.602,0.359   c0.11,0,0.221-0.026,0.325-0.082c0.333-0.179,0.456-0.594,0.276-0.927l-1.074-1.987l2.848-23.765   C49.304,41.887,49.259,41.83,49.196,41.822z" fill="#434649"/><path d="M34.408,43.548c-0.007-0.093-0.031-0.187-0.078-0.274l-1.431-2.648c-0.18-0.332-0.594-0.456-0.927-0.276   c-0.333,0.179-0.456,0.594-0.276,0.927l1.431,2.648c0.124,0.229,0.359,0.359,0.602,0.359c0.11,0,0.221-0.026,0.325-0.082   c0.157-0.085,0.263-0.224,0.317-0.381l26.359,23.513c0.021,0.02,0.049,0.029,0.076,0.029c0.031,0,0.062-0.013,0.085-0.038   c0.042-0.047,0.038-0.119-0.009-0.161L34.408,43.548z" fill="#434649"/><path d="M31.789,81.13c-0.316,0.393-0.253,0.967,0.139,1.282c0.168,0.135,0.37,0.201,0.571,0.201   c0.267,0,0.531-0.117,0.711-0.341l5.076-6.316c-0.429-0.432-0.912-0.807-1.432-1.129L31.789,81.13z" fill="#010203" opacity="0.2"/><path d="M66.466,67.716c-8.596-0.8-15.988-1.125-23.917-0.845c-0.808,0-1.463,0.567-1.463,1.267   c0,0.7,0.655,1.267,1.463,1.267c7.856,0.281,15.239-0.024,23.917-0.845c0.356-0.038,1.368-0.189,1.368-0.422   C67.834,67.905,66.78,67.739,66.466,67.716z" fill="#E9705B"/><path d="M53.7,40.703c-8.596-0.8-15.988-1.125-23.917-0.845c-0.808,0-1.463,0.567-1.463,1.267   c0,0.7,0.655,1.267,1.463,1.267c7.856,0.281,15.239-0.024,23.917-0.845c0.356-0.038,1.368-0.189,1.368-0.422   C55.068,40.892,54.014,40.726,53.7,40.703z" fill="#45474A"/><path d="M66.466,67.702c-8.596-0.8-15.988-1.125-23.917-0.845c-0.808,0-1.463,0.567-1.463,1.267   c0,0.087,0.01,0.172,0.03,0.254c0.136-0.578,0.726-1.013,1.434-1.013c7.93-0.281,15.321,0.044,23.917,0.845   c0.18,0.013,0.6,0.075,0.928,0.168c0.245-0.068,0.439-0.153,0.439-0.254C67.834,67.891,66.78,67.725,66.466,67.702z" fill="#FFFFFF" opacity="0.3"/><path d="M67.395,67.898c-0.319,0.088-0.727,0.147-0.928,0.168c-8.679,0.82-16.061,1.126-23.917,0.845   c-0.708,0-1.297-0.435-1.434-1.013c-0.019,0.082-0.03,0.167-0.03,0.254c0,0.7,0.655,1.267,1.463,1.267   c7.856,0.281,15.239-0.024,23.917-0.845c0.356-0.038,1.368-0.189,1.368-0.422C67.834,68.053,67.639,67.967,67.395,67.898z" fill="#010203" opacity="0.1"/><path d="M66.466,67.716c-8.596-0.8-15.988-1.125-23.917-0.845c-0.808,0-1.463,0.567-1.463,1.267   c0,0.7,0.655,1.267,1.463,1.267c7.856,0.281,15.239-0.024,23.917-0.845c0.356-0.038,1.368-0.189,1.368-0.422   C67.834,67.905,66.78,67.739,66.466,67.716z" fill="#45474A"/><path d="M53.7,40.688c-8.596-0.8-15.988-1.125-23.917-0.845c-0.808,0-1.463,0.567-1.463,1.267   c0,0.087,0.01,0.172,0.03,0.254c0.136-0.578,0.726-1.013,1.434-1.013c7.93-0.281,15.321,0.044,23.917,0.845   c0.18,0.013,0.6,0.075,0.928,0.168c0.245-0.068,0.439-0.153,0.439-0.254C55.068,40.877,54.014,40.712,53.7,40.688z" fill="#FFFFFF" opacity="0.3"/><path d="M66.466,67.702c-8.596-0.8-15.988-1.125-23.917-0.845c-0.808,0-1.463,0.567-1.463,1.267   c0,0.087,0.01,0.172,0.03,0.254c0.136-0.578,0.726-1.013,1.434-1.013c7.93-0.281,15.321,0.044,23.917,0.845   c0.18,0.013,0.6,0.075,0.928,0.168c0.245-0.068,0.439-0.153,0.439-0.254C67.834,67.891,66.78,67.725,66.466,67.702z" fill="#FFFFFF" opacity="0.3"/><path d="M54.629,40.884c-0.319,0.088-0.727,0.147-0.928,0.168c-8.679,0.82-16.061,1.126-23.917,0.845   c-0.708,0-1.298-0.435-1.434-1.013c-0.019,0.082-0.03,0.167-0.03,0.254c0,0.7,0.655,1.267,1.463,1.267   c7.856,0.281,15.239-0.024,23.917-0.845c0.356-0.038,1.368-0.189,1.368-0.422C55.068,41.04,54.873,40.953,54.629,40.884z" fill="#010203" opacity="0.1"/><path d="M67.395,67.898c-0.319,0.088-0.727,0.147-0.928,0.168c-8.679,0.82-16.061,1.126-23.917,0.845   c-0.708,0-1.297-0.435-1.434-1.013c-0.019,0.082-0.03,0.167-0.03,0.254c0,0.7,0.655,1.267,1.463,1.267   c7.856,0.281,15.239-0.024,23.917-0.845c0.356-0.038,1.368-0.189,1.368-0.422C67.834,68.053,67.639,67.967,67.395,67.898z" fill="#010203" opacity="0.1"/><path d="M31.88,73.725v7.977c0,0.504,0.408,0.912,0.912,0.912s0.912-0.408,0.912-0.912v-7.977   c-0.3-0.035-0.603-0.058-0.912-0.058C32.483,73.666,32.179,73.689,31.88,73.725z" fill="#010203" opacity="0.2"/><circle cx="32.792" cy="81.417" fill="#45474A" r="6.839"/><path d="M25.953,81.417c0,2.004,0.868,3.802,2.241,5.052c-1.106-1.215-1.785-2.824-1.785-4.596   c0-3.777,3.062-6.839,6.839-6.839c1.773,0,3.382,0.68,4.597,1.786c-1.251-1.375-3.049-2.243-5.054-2.243   C29.015,74.578,25.953,77.64,25.953,81.417z" fill="#FEFDFD" opacity="0.2"/><path d="M39.206,80.96c0,3.777-3.062,6.839-6.839,6.839c-1.773,0-3.382-0.68-4.597-1.786   c1.251,1.375,3.049,2.243,5.054,2.243c3.777,0,6.839-3.062,6.839-6.839c0-2.004-0.868-3.802-2.242-5.052   C38.526,77.579,39.206,79.188,39.206,80.96z" fill="#010203" opacity="0.2"/><path d="M32.792,76.858c-2.514,0-4.559,2.045-4.559,4.559s2.045,4.559,4.559,4.559s4.559-2.045,4.559-4.559   S35.305,76.858,32.792,76.858z" fill="#E9705B"/><path d="M35.514,77.782c0.573,0.762,0.925,1.698,0.925,2.723c0,2.514-2.045,4.559-4.559,4.559   c-1.024,0-1.961-0.352-2.723-0.925c0.833,1.108,2.145,1.836,3.635,1.836c2.514,0,4.559-2.045,4.559-4.559   C37.351,79.927,36.623,78.615,35.514,77.782z" fill="#010203" opacity="0.05"/><path d="M22.588,40.112c-0.34,0-0.617,0.273-0.622,0.612l-1.149,17.441h2.223V40.734   C23.04,40.39,22.932,40.112,22.588,40.112z" fill="#B28F6F"/><path d="M21.966,78.342c0.005,0.34,0.282,0.612,0.622,0.612c0.343,0,0.452-0.278,0.452-0.622V60.901h-2.223   L21.966,78.342z" fill="#B28F6F"/><rect fill="#838282" height="0.912" width="3.951" x="20" y="59.077"/><polygon fill="#AFADAD" points="20.304,58.165 20.304,60.901 23.496,60.901 23.496,58.165 23.04,58.165  "/><circle cx="32.792" cy="81.417" fill="#45474A" r="0.456"/></g></svg>